<svg width="18px" height="15px" viewBox="0 0 18 15" xmlns="http://www.w3.org/2000/svg" xmlns:xlink="http://www.w3.org/1999/xlink"><title>Mask</title><defs><path d="M1.41272727,10.8122727 L4.31045455,10.8122727 L8.36727273,14.8690909 L9.14,14.8690909 L9.14,0.96 L8.36727273,0.96 L4.31045455,5.01681818 L1.41272727,5.01681818 L0.64,5.78954545 L0.64,10.0395455 L1.41272727,10.8122727 Z M16.3263636,7.91454545 C16.3263636,10.0009091 15.6115909,11.9134091 14.3945455,13.4588636 L14.8195455,13.8645455 C16.5388636,12.4543182 17.64,10.3293182 17.64,7.91454545 C17.64,5.49977273 16.5388636,3.35545455 14.8195455,1.94522727 L14.3945455,2.35090909 C15.6115909,3.89636364 16.3263636,5.80886364 16.3263636,7.91454545 Z M12.3081818,7.91454545 C12.3081818,9.13159091 11.9797727,10.2134091 11.3229545,11.16 L11.8252273,11.6622727 C12.8104545,10.6770455 13.39,9.38272727 13.39,7.91454545 C13.39,6.42704545 12.8104545,5.13272727 11.8252273,4.1475 L11.3229545,4.64977273 C11.9797727,5.59636364 12.3081818,6.6975 12.3081818,7.91454545 Z" id="path-1"/></defs><g id="Page-1" fill="none" fill-rule="evenodd"><g id="05-Desktop-HalfWayAudioPage-2" transform="translate(-148 -515)"><g id="Volume-control" transform="translate(143 508)"><g id="Audio-icon"><g id="Media-/-Audio" transform="translate(5.25 6.5)"><mask id="mask-2" fill="white"><use xlink:href="#path-1"/></mask><use id="Mask" fill="#FFFFFF" xlink:href="#path-1"/></g></g></g></g></g></svg>